<svg width="42" height="41" viewBox="0 0 42 41" fill="none" xmlns="http://www.w3.org/2000/svg">
<path d="M31.8453 5.29578H7.63475C6.18137 5.29578 5.00317 6.47256 5.00317 7.92419V32.5562C5.00317 34.0078 6.18137 35.1846 7.63475 35.1846H31.8453C33.2987 35.1846 34.4769 34.0078 34.4769 32.5562V7.92419C34.4769 6.47256 33.2987 5.29578 31.8453 5.29578Z" stroke="#EAF2FF" stroke-width="10"/>
<path d="M13.1409 27.6179C15.2663 30.0859 18.9252 30.2486 21.2418 27.9781L39.2964 10.2819C39.7475 9.83965 40.0032 9.22302 40.0032 8.57756C40.0032 6.67619 37.942 5.56572 36.4528 6.66459L21.0089 18.0586C19.1662 19.4181 16.6497 19.1955 15.0516 17.5317L11.8076 14.1545C10.5265 12.8208 8.54372 12.5532 6.9799 13.5029C4.73733 14.8648 4.32546 18.061 6.14349 19.9931L11.2276 25.3963L13.1409 27.6179Z" fill="#79AAF3" stroke="#7D7B7B" stroke-width="2"/>
</svg>
