<svg width="23" height="22" viewBox="0 0 23 22" fill="none" xmlns="http://www.w3.org/2000/svg">
<path d="M1.9248 5.17102H21.8199" stroke="black" stroke-width="2" stroke-linecap="round" stroke-linejoin="round"/>
<path d="M7.45061 5.17124V3.22838C7.45061 2.7131 7.68351 2.21893 8.09807 1.85457C8.51263 1.49022 9.0749 1.28552 9.66118 1.28552H14.0823C14.6686 1.28552 15.2308 1.49022 15.6454 1.85457C16.06 2.21893 16.2929 2.7131 16.2929 3.22838V5.17124M19.6087 5.17124V18.7712C19.6087 19.2865 19.3758 19.7807 18.9613 20.145C18.5467 20.5094 17.9844 20.7141 17.3981 20.7141H6.34533C5.75905 20.7141 5.19679 20.5094 4.78222 20.145C4.36766 19.7807 4.13477 19.2865 4.13477 18.7712V5.17124H19.6087Z" stroke="black" stroke-width="2" stroke-linecap="round" stroke-linejoin="round"/>
<path d="M9.66113 10.0282V15.8568" stroke="black" stroke-width="2" stroke-linecap="round" stroke-linejoin="round"/>
<path d="M14.082 10.0282V15.8568" stroke="black" stroke-width="2" stroke-linecap="round" stroke-linejoin="round"/>
</svg>
