<svg width="22" height="21" viewBox="0 0 22 21" fill="none" xmlns="http://www.w3.org/2000/svg">
<path d="M19.0528 0H2.66863C1.54222 0 0.620605 0.885938 0.620605 1.96875V19.0312C0.620605 20.1141 1.54222 21 2.66863 21H19.0528C20.1792 21 21.1008 20.1141 21.1008 19.0312V1.96875C21.1008 0.885938 20.1792 0 19.0528 0ZM18.3701 18.375H3.3513V2.625H18.3701V18.375ZM6.082 11.8125H15.6394V13.125H6.082V11.8125ZM6.082 14.4375H15.6394V15.75H6.082V14.4375ZM7.44735 5.90625C7.44744 5.64762 7.50052 5.39155 7.60356 5.15264C7.7066 4.91373 7.85758 4.69668 8.04788 4.51386C8.23819 4.33105 8.46408 4.18605 8.71268 4.08716C8.96127 3.98827 9.2277 3.93741 9.49674 3.9375C9.76578 3.93759 10.0322 3.98861 10.2807 4.08766C10.5292 4.18671 10.755 4.33185 10.9452 4.51479C11.1354 4.69773 11.2862 4.91488 11.3891 5.15385C11.4919 5.39283 11.5448 5.64894 11.5448 5.90756C11.5446 6.42988 11.3286 6.93074 10.9442 7.29995C10.5599 7.66916 10.0387 7.87649 9.49537 7.87631C8.95202 7.87614 8.431 7.66848 8.04692 7.29902C7.66284 6.92956 7.44717 6.42857 7.44735 5.90625ZM10.8607 7.875H8.13002C7.00361 7.875 6.082 8.46562 6.082 9.1875V10.5H12.9087V9.1875C12.9087 8.46562 11.9871 7.875 10.8607 7.875Z" fill="black"/>
</svg>
