<svg width="18" height="20" viewBox="0 0 18 20" fill="none" xmlns="http://www.w3.org/2000/svg">
<path d="M16.6791 5.09947C17.0938 4.72475 17.322 4.22712 17.322 3.69776C17.322 3.1684 17.0938 2.67077 16.6791 2.29606L14.939 0.723849C14.5242 0.349136 13.9735 0.142944 13.3876 0.142944C12.8017 0.142944 12.2509 0.349136 11.8373 0.722857L0.172363 11.2297V15.6063H5.01411L16.6791 5.09947ZM13.3876 2.12555L15.1288 3.69677L13.3843 5.267L11.6442 3.69578L13.3876 2.12555ZM2.36667 13.6237V12.0525L10.0906 5.0955L11.8307 6.66771L4.10786 13.6237H2.36667ZM0.172363 17.5889H17.7268V19.5715H0.172363V17.5889Z" fill="black"/>
</svg>
