<svg width="38" height="41" viewBox="0 0 38 41" fill="none" xmlns="http://www.w3.org/2000/svg">
<path fill-rule="evenodd" clip-rule="evenodd" d="M17.7709 0.432419C18.4832 -0.144141 19.5168 -0.144138 20.2291 0.432419L35.6848 12.942C36.3546 13.4842 36.4396 14.3167 36.3497 14.9231C37.228 15.0493 38 15.7722 38 16.7804V39.1231C38 40.235 37.0609 41 36.0758 41H1.92421C0.939111 41 0 40.235 0 39.1231V16.7804C0 15.7723 0.771993 15.0493 1.65032 14.9231C1.56036 14.3167 1.64537 13.4842 2.31523 12.942L17.7709 0.432419ZM2.14085 18.0261V38.8421H35.8592V18.0261L20.3508 32.932C19.602 33.6517 18.398 33.6517 17.6492 32.932L2.14085 18.0261ZM4.23932 17.0614H33.7607L19 31.2486L4.23932 17.0614ZM34.2404 14.5405L19 2.20506L3.75956 14.5405C3.75966 14.5431 3.75978 14.5458 3.75994 14.5485C3.76095 14.5663 3.76313 14.5851 3.76652 14.6043H34.2335C34.2369 14.5851 34.239 14.5663 34.2401 14.5485C34.2402 14.5458 34.2403 14.5431 34.2404 14.5405ZM3.76295 14.4826C3.76295 14.4826 3.7629 14.4828 3.7628 14.4832L3.76295 14.4826Z" fill="white"/>
<path d="M14.171 30.1439L12.1431 26.4029H11.839V30.1439H9V20H13.4757C14.2965 20 14.9918 20.1439 15.5615 20.4317C16.1312 20.7098 16.5609 21.0983 16.8506 21.5971C17.1403 22.0863 17.2852 22.6379 17.2852 23.2518C17.2852 23.9424 17.092 24.5516 16.7058 25.0791C16.3292 25.5971 15.7739 25.9664 15.0401 26.1871L17.3431 30.1439H14.171ZM11.839 24.4748H13.244C13.6302 24.4748 13.9199 24.3837 14.113 24.2014C14.3062 24.0192 14.4027 23.7554 14.4027 23.4101C14.4027 23.0839 14.3013 22.8297 14.0986 22.6475C13.9054 22.4556 13.6206 22.3597 13.244 22.3597H11.839V24.4748Z" fill="#FFB526"/>
<path d="M20.691 23.1942C20.9131 22.8201 21.2269 22.5228 21.6325 22.3022C22.038 22.0815 22.516 21.9712 23.0664 21.9712C23.7134 21.9712 24.2976 22.1391 24.8191 22.4748C25.3502 22.8106 25.7654 23.2902 26.0647 23.9137C26.3737 24.5372 26.5282 25.2662 26.5282 26.1007C26.5282 26.9353 26.3737 27.6691 26.0647 28.3022C25.7654 28.9257 25.3502 29.4053 24.8191 29.741C24.2976 30.0767 23.7134 30.2446 23.0664 30.2446C22.516 30.2446 22.038 30.1343 21.6325 29.9137C21.2365 29.693 20.9227 29.3957 20.691 29.0216V34H17.852V22.0719H20.691V23.1942ZM23.6458 26.1007C23.6458 25.5731 23.501 25.1655 23.2113 24.8777C22.9312 24.5803 22.5836 24.4317 22.1684 24.4317C21.7532 24.4317 21.4007 24.5803 21.111 24.8777C20.831 25.1751 20.691 25.5827 20.691 26.1007C20.691 26.6283 20.831 27.0408 21.111 27.3381C21.4007 27.6355 21.7532 27.7842 22.1684 27.7842C22.5836 27.7842 22.9312 27.6355 23.2113 27.3381C23.501 27.0312 23.6458 26.6187 23.6458 26.1007Z" fill="#FFB526"/>
<path d="M28.3488 30.259C27.8466 30.259 27.4411 30.1247 27.1321 29.8561C26.8327 29.5779 26.683 29.2278 26.683 28.8058C26.683 28.3837 26.8327 28.0336 27.1321 27.7554C27.4411 27.4772 27.8466 27.3381 28.3488 27.3381C28.8412 27.3381 29.2371 27.4772 29.5365 27.7554C29.8455 28.0336 30 28.3837 30 28.8058C30 29.2182 29.8455 29.5635 29.5365 29.8417C29.2371 30.1199 28.8412 30.259 28.3488 30.259Z" fill="#FFB526"/>
<path fill-rule="evenodd" clip-rule="evenodd" d="M14.1217 30.4368L12.7887 28.0391V30.4368H9V20H13.7908C14.6298 20 15.3779 20.143 16.013 20.455C16.6387 20.7535 17.1301 21.1809 17.4636 21.7399C17.4985 21.7974 17.5315 21.8556 17.5625 21.9145H21.1778V22.2362C21.2039 22.2213 21.2304 22.2068 21.2572 22.1926C21.7365 21.9384 22.2836 21.8215 22.8799 21.8215C23.5937 21.8215 24.2512 22.0035 24.8376 22.3711C25.4349 22.7398 25.8927 23.2619 26.2156 23.9162C26.5512 24.5779 26.7098 25.3339 26.7098 26.169C26.7098 26.4919 26.6861 26.8033 26.6378 27.1025C27 26.8809 27.425 26.7806 27.886 26.7806C28.4608 26.7806 28.9788 26.9416 29.3835 27.3067C29.7916 27.6663 30 28.133 30 28.6686C30 29.1992 29.7886 29.6602 29.3835 30.0171C28.9788 30.3822 28.4608 30.5432 27.886 30.5432C27.3081 30.5432 26.7854 30.3902 26.3714 30.0394L26.3645 30.0335L26.3578 30.0275C26.071 29.7676 25.8868 29.4537 25.8059 29.1005C25.5383 29.4517 25.2159 29.7468 24.8376 29.9803C24.2512 30.3479 23.5937 30.5299 22.8799 30.5299C22.2836 30.5299 21.7365 30.413 21.2572 30.1588L21.2523 30.1561C21.2272 30.1425 21.2023 30.1286 21.1778 30.1144V34H17.3891V30.4368H14.1217ZM17.9382 33.4682H20.6287V28.868C20.7765 29.1006 20.9595 29.3011 21.1778 29.4695C21.2838 29.5514 21.3982 29.6256 21.5209 29.6923C21.9053 29.8962 22.3583 29.9981 22.8799 29.9981C23.4931 29.9981 24.0467 29.843 24.5409 29.5328C25.0442 29.2225 25.4377 28.7794 25.7214 28.2032C26.0143 27.6182 26.1607 26.9402 26.1607 26.169C26.1607 25.3979 26.0143 24.7243 25.7214 24.1481C25.4377 23.572 25.0442 23.1288 24.5409 22.8186C24.0467 22.5084 23.4931 22.3533 22.8799 22.3533C22.3583 22.3533 21.9053 22.4552 21.5209 22.6591C21.3976 22.7245 21.2832 22.7972 21.1778 22.8772C20.9546 23.0466 20.7716 23.2486 20.6287 23.4834V22.4463H17.9382V33.4682ZM17.3891 25.4076V28.7306L16.0685 26.5184C16.5671 26.2833 16.982 25.9587 17.2965 25.5372C17.3285 25.4945 17.3594 25.4513 17.3891 25.4076ZM17.3891 23.8136C17.397 23.7229 17.401 23.6305 17.401 23.5366C17.401 23.4401 17.397 23.3453 17.3891 23.2522C17.3503 22.7977 17.217 22.3828 16.9892 22.0076C16.7146 21.5467 16.3074 21.1877 15.7675 20.9307C15.2275 20.6648 14.5686 20.5318 13.7908 20.5318H9.54908V29.905H12.2396V26.4482H12.5279L14.4497 29.905H17.4559L15.2733 26.2488C15.4585 26.1945 15.6317 26.1305 15.7929 26.0567C16.237 25.8535 16.59 25.5763 16.8519 25.2251C17.1641 24.8094 17.3431 24.3389 17.3891 23.8136ZM14.0025 23.3636L13.9928 23.3542C13.9467 23.3096 13.8387 23.2441 13.5711 23.2441H12.7887V24.1349H13.5711C13.8594 24.1349 13.9736 24.0681 14.0166 24.0285L14.3948 24.4141C14.2117 24.5825 13.9372 24.6667 13.5711 24.6667H12.2396V22.7123H13.5711C13.928 22.7123 14.198 22.8009 14.381 22.9782C14.5732 23.1466 14.6693 23.3814 14.6693 23.6828C14.6693 24.0019 14.5778 24.2456 14.3948 24.4141L14.0166 24.0285C14.0599 23.9886 14.1202 23.9028 14.1202 23.6828C14.1202 23.4989 14.0669 23.42 14.0126 23.3725L14.0025 23.3636ZM22.6289 25.415L22.6225 25.4087L22.6162 25.4022C22.4562 25.2365 22.2726 25.1586 22.0288 25.1586C21.7862 25.1586 21.5953 25.2361 21.4247 25.4054C21.28 25.557 21.1778 25.7898 21.1778 26.169C21.1778 26.5601 21.2816 26.796 21.4247 26.946C21.5953 27.1153 21.7862 27.1928 22.0288 27.1928C22.2726 27.1928 22.4562 27.1148 22.6162 26.9491L22.6166 26.9487C22.7749 26.7852 22.8799 26.5454 22.8799 26.169C22.8799 25.779 22.7725 25.5541 22.6289 25.415ZM21.0268 27.3124C20.7614 27.0377 20.6287 26.6565 20.6287 26.169C20.6287 25.6904 20.7614 25.3137 21.0268 25.0389C21.3013 24.7642 21.6353 24.6268 22.0288 24.6268C22.4224 24.6268 22.7518 24.7642 23.0172 25.0389C23.2917 25.3048 23.429 25.6815 23.429 26.169C23.429 26.6477 23.2917 27.0288 23.0172 27.3124C22.7518 27.5872 22.4224 27.7246 22.0288 27.7246C21.6353 27.7246 21.3013 27.5872 21.0268 27.3124ZM26.733 29.6391C27.0258 29.8873 27.4102 30.0114 27.886 30.0114C28.3527 30.0114 28.728 29.8829 29.0117 29.6258C29.3045 29.3688 29.4509 29.0497 29.4509 28.6686C29.4509 28.2786 29.3045 27.955 29.0117 27.698C28.728 27.441 28.3527 27.3124 27.886 27.3124C27.4102 27.3124 27.0258 27.441 26.733 27.698C26.4493 27.955 26.3074 28.2786 26.3074 28.6686C26.3074 29.0586 26.4493 29.3821 26.733 29.6391Z" fill="#7D7B7B"/>
</svg>
