<svg width="38" height="41" viewBox="0 0 38 41" fill="none" xmlns="http://www.w3.org/2000/svg">
<path fill-rule="evenodd" clip-rule="evenodd" d="M2.71429 5.0625C2.71429 3.71984 3.28622 2.43217 4.30428 1.48277C5.32233 0.533369 6.70311 0 8.14286 0H29.8571C31.2969 0 32.6777 0.533369 33.6957 1.48277C34.7138 2.43217 35.2857 3.71984 35.2857 5.0625V35.4375C36.0056 35.4375 36.696 35.7042 37.205 36.1789C37.714 36.6536 38 37.2974 38 37.9688C38 38.6401 37.714 39.2839 37.205 39.7586C36.696 40.2333 36.0056 40.5 35.2857 40.5H27.1429C26.423 40.5 25.7326 40.2333 25.2236 39.7586C24.7145 39.2839 24.4286 38.6401 24.4286 37.9688V32.9062C24.4286 32.2349 24.1426 31.5911 23.6336 31.1164C23.1245 30.6417 22.4342 30.375 21.7143 30.375H16.2857C15.5658 30.375 14.8755 30.6417 14.3664 31.1164C13.8574 31.5911 13.5714 32.2349 13.5714 32.9062V37.9688C13.5714 38.6401 13.2855 39.2839 12.7764 39.7586C12.2674 40.2333 11.577 40.5 10.8571 40.5H2.71429C1.99441 40.5 1.30402 40.2333 0.794996 39.7586C0.285968 39.2839 0 38.6401 0 37.9688C0 37.2974 0.285968 36.6536 0.794996 36.1789C1.30402 35.7042 1.99441 35.4375 2.71429 35.4375V5.0625ZM10.8571 7.59375H16.2857V12.6562H10.8571V7.59375ZM16.2857 17.7188H10.8571V22.7812H16.2857V17.7188ZM21.7143 7.59375H27.1429V12.6562H21.7143V7.59375ZM27.1429 17.7188H21.7143V22.7812H27.1429V17.7188Z" fill="#EAF2FF"/>
</svg>
