<svg width="42" height="31" viewBox="0 0 42 31" fill="none" xmlns="http://www.w3.org/2000/svg">
<path d="M17.2 2H3.9C3.39609 2 2.91282 2.18416 2.5565 2.51198C2.20018 2.83979 2 3.2844 2 3.748V26.472C2 26.9356 2.20018 27.3802 2.5565 27.708C2.91282 28.0358 3.39609 28.22 3.9 28.22H38.1C38.6039 28.22 39.0872 28.0358 39.4435 27.708C39.7998 27.3802 40 26.9356 40 26.472V24.287" stroke="white" stroke-width="4" stroke-linecap="round" stroke-linejoin="round"/>
<path d="M7.69995 20.3539H30.4999M7.69995 13.3619H15.2999H7.69995Z" stroke="white" stroke-width="4" stroke-linecap="round"/>
<path d="M30.5 12.488C33.6481 12.488 36.2 10.1402 36.2 7.244C36.2 4.34782 33.6481 2 30.5 2C27.352 2 24.8 4.34782 24.8 7.244C24.8 10.1402 27.352 12.488 30.5 12.488Z" fill="#49C66C" stroke="white" stroke-width="4" stroke-linecap="round" stroke-linejoin="round"/>
<path d="M40 18.0982C38.1447 14.7622 34.3 12.488 30.5 12.488C26.7 12.488 24.8067 13.4783 22.8525 15.11" stroke="white" stroke-width="4" stroke-linecap="round" stroke-linejoin="round"/>
</svg>
