<svg width="38" height="43" viewBox="0 0 38 43" fill="none" xmlns="http://www.w3.org/2000/svg">
<path d="M24.0973 20.9504C23.4913 19.9049 23.8475 18.5661 24.893 17.96L31.5567 14.0972C32.6022 13.4912 33.941 13.8474 34.5471 14.8929C35.1531 15.9384 34.7969 17.2772 33.7514 17.8833L27.0877 21.7461C26.0422 22.3521 24.7034 21.9959 24.0973 20.9504Z" fill="#EAF2FF"/>
<rect y="32.2173" width="17.9008" height="4.37613" rx="2.18806" transform="rotate(-47.5925 0 32.2173)" fill="#EAF2FF"/>
<path d="M31.5 11C31.5 9.34315 32.8431 8 34.5 8H34.95C36.6069 8 37.95 9.34315 37.95 11V15.2125C37.95 16.8694 36.6069 18.2125 34.95 18.2125H34.5C32.8431 18.2125 31.5 16.8694 31.5 15.2125V11Z" fill="#EAF2FF"/>
<path d="M9.4209 25.4417C9.4209 20.3952 13.5119 16.3042 18.5584 16.3042C23.6049 16.3042 27.6959 20.3952 27.6959 25.4417V33.8625C27.6959 38.909 23.6049 43 18.5584 43C13.5119 43 9.4209 38.909 9.4209 33.8625V25.4417Z" fill="#EAF2FF"/>
<path d="M17.1454 27.5364C16.8821 27.1091 17.1527 26.5237 17.6134 26.5237H18.0034C18.1874 26.5237 18.3601 26.624 18.4672 26.7932L20.9809 30.7635C21.112 30.9706 21.1229 31.2455 21.0088 31.465L20.7995 31.8675C20.5888 32.2728 20.0774 32.2951 19.8397 31.9093L17.1454 27.5364Z" fill="#79AAF3"/>
<path d="M24.043 23.3014C24.1017 23.1798 24.1972 23.0862 24.3121 23.0379C24.7599 22.8496 25.1695 23.4 24.9286 23.8662L20.8782 31.7041C20.6313 32.182 20.0012 32.109 19.8451 31.5844L19.6263 30.8489C19.517 30.4815 19.7174 30.0889 20.0536 30.0119L20.6382 29.8779C20.8032 29.8401 20.945 29.7218 21.0256 29.5548L24.043 23.3014Z" fill="#79AAF3"/>
<path d="M13.0909 27.1315C12.8479 26.7025 13.1206 26.1396 13.5713 26.1396H13.9913C14.1863 26.1396 14.3677 26.2522 14.4724 26.438L17.3992 31.6332C17.5132 31.8356 17.5183 32.0926 17.4125 32.3006L17.2211 32.6767C17.0078 33.096 16.4771 33.1103 16.2463 32.7029L13.0909 27.1315Z" fill="#79AAF3"/>
<path d="M18.0275 29.8745C18.1385 29.6727 18.402 29.685 18.4979 29.8965C18.5397 29.9888 18.5373 30.0989 18.4913 30.1887L17.4149 32.2942C17.1692 32.7749 16.5235 32.6261 16.4639 32.0751C16.4289 31.7507 16.6411 31.4577 16.9292 31.4288C17.0905 31.4125 17.2371 31.3114 17.3226 31.1559L18.0275 29.8745Z" fill="#79AAF3"/>
<path d="M27.3376 8.24167C27.3376 12.7934 23.6878 16.4833 19.1855 16.4833C14.6833 16.4833 11.0334 12.7934 11.0334 8.24167C11.0334 3.68992 14.6833 0 19.1855 0C23.6878 0 27.3376 3.68992 27.3376 8.24167Z" fill="#EAF2FF"/>
<path d="M20.8875 12.1833C20.8875 14.202 19.7506 15.2292 18.3482 15.2292C16.9458 15.2292 15.8708 13.6976 15.8708 13.0971C16.9237 13.0971 16.9458 12.6707 18.3482 12.6707C19.7506 12.6707 20.6398 13.76 20.8875 12.1833Z" fill="#79AAF3"/>
<path d="M20.1707 13.2583C20.1707 14.2082 19.3587 14.6916 18.3569 14.6916C17.3552 14.6916 16.5874 13.9709 16.5874 13.6883C17.3395 13.6883 17.3552 13.4876 18.3569 13.4876C19.3587 13.4876 19.9938 14.0002 20.1707 13.2583Z" fill="#EAF2FF"/>
<path d="M23.0376 10.5708C23.0376 14.5515 20.9119 12.4468 18.2897 12.4468C15.6675 12.4468 13.5417 14.6947 13.5417 10.714C13.5417 14.6782 15.7908 10.4276 18.4146 11.0003C21.0385 10.4276 23.0376 14.7152 23.0376 10.5708Z" fill="#778293"/>
</svg>
