<svg width="42" height="42" viewBox="0 0 42 42" fill="none" xmlns="http://www.w3.org/2000/svg">
<path fill-rule="evenodd" clip-rule="evenodd" d="M32.4286 3.09859H9.57143V18.9014H32.4286V3.09859ZM9.57143 0C7.59898 0 6 1.38729 6 3.09859V18.9014C6 20.6127 7.59898 22 9.57143 22H32.4286C34.401 22 36 20.6127 36 18.9014V3.09859C36 1.38729 34.401 0 32.4286 0H9.57143Z" fill="white"/>
<path d="M18 31.7125C18 30.2144 19.3431 29 21 29C22.6569 29 24 30.2144 24 31.7125V39.2875C24 40.7856 22.6569 42 21 42C19.3431 42 18 40.7856 18 39.2875V31.7125Z" fill="white"/>
<path fill-rule="evenodd" clip-rule="evenodd" d="M33.9488 20.3333H7.74134L3.71794 28.6667L38.2817 28.6667L33.9488 20.3333ZM7.74134 17C6.2611 17 4.9222 17.7889 4.33364 19.008L0.310247 27.3413C-0.752433 29.5423 1.04527 32 3.71794 32H38.2817C40.9988 32 42.7962 29.467 41.6471 27.2571L37.3143 18.9237C36.7041 17.7501 35.3918 17 33.9488 17H7.74134Z" fill="white"/>
<path d="M40 37.5C40 39.9853 31.4934 42 21 42C10.5066 42 2 39.9853 2 37.5C2 35.0147 10.5066 33 21 33C31.4934 33 40 35.0147 40 37.5Z" fill="white"/>
<path d="M23.3852 6L22.9344 23.0697H19.8197L19.3689 6H23.3852ZM21.541 30C20.8306 30 20.2295 29.7952 19.7377 29.3855C19.2459 28.9758 19 28.4751 19 27.8834C19 27.2916 19.2459 26.7909 19.7377 26.3812C20.2295 25.9715 20.8306 25.7667 21.541 25.7667C22.224 25.7667 22.7978 25.9715 23.2623 26.3812C23.7541 26.7909 24 27.2916 24 27.8834C24 28.4751 23.7541 28.9758 23.2623 29.3855C22.7978 29.7952 22.224 30 21.541 30Z" fill="#ED5E66"/>
<path fill-rule="evenodd" clip-rule="evenodd" d="M24.471 5L24.0084 24.8787H18.769L18.3064 5H24.471ZM23.2067 6.16934H19.5707L19.9788 23.7094H22.7986L23.2067 6.16934ZM21.5371 32C20.5738 32 19.7127 31.6715 19.0301 31.0261C18.3474 30.3806 18 29.5664 18 28.6557C18 27.7449 18.3474 26.9308 19.0301 26.2853C19.7127 25.6399 20.5738 25.3114 21.5371 25.3114C22.4861 25.3114 23.3273 25.6476 23.9823 26.2971C24.6568 26.9406 25 27.7505 25 28.6557C25 29.5609 24.6568 30.3707 23.9823 31.0143C23.3273 31.6638 22.4861 32 21.5371 32ZM23.0954 30.1992C23.5406 29.7783 23.7633 29.2638 23.7633 28.6557C23.7633 28.0476 23.5406 27.5331 23.0954 27.1122C22.6749 26.6912 22.1555 26.4807 21.5371 26.4807C20.894 26.4807 20.3498 26.6912 19.9046 27.1122C19.4594 27.5331 19.2367 28.0476 19.2367 28.6557C19.2367 29.2638 19.4594 29.7783 19.9046 30.1992C20.3498 30.6202 20.894 30.8307 21.5371 30.8307C22.1555 30.8307 22.6749 30.6202 23.0954 30.1992Z" fill="#7D7B7B"/>
</svg>
