<svg width="43" height="40" viewBox="0 0 43 40" fill="none" xmlns="http://www.w3.org/2000/svg">
<path d="M0 15.5245C0 14.7521 0.695009 14.1259 1.55235 14.1259H14.1264C14.9837 14.1259 15.6787 13.4997 15.6787 12.7273V1.3986C15.6787 0.626175 16.3737 0 17.231 0H25.6137C26.4711 0 27.1661 0.626175 27.1661 1.3986V13.5466C27.1661 13.9175 27.0025 14.2732 26.7114 14.5355L16.1334 24.0659C15.8423 24.3282 15.4474 24.4755 15.0357 24.4755H1.55235C0.695009 24.4755 0 23.8494 0 23.0769V15.5245Z" fill="white"/>
<path d="M43 24.4755C43 25.248 42.305 25.8741 41.4477 25.8741H28.8736C28.0163 25.8741 27.3213 26.5003 27.3213 27.2727V38.6014C27.3213 39.3738 26.6263 40 25.769 40H17.3863C16.5289 40 15.8339 39.3738 15.8339 38.6014V26.4534C15.8339 26.0825 15.9975 25.7268 16.2886 25.4645L26.8666 15.9341C27.1578 15.6718 27.5526 15.5245 27.9643 15.5245H41.4477C42.305 15.5245 43 16.1507 43 16.9231V24.4755Z" fill="white"/>
</svg>
