<svg width="47" height="33" viewBox="0 0 47 33" fill="none" xmlns="http://www.w3.org/2000/svg">
<path fill-rule="evenodd" clip-rule="evenodd" d="M20.8729 20.3238H44.2674V3.03685H20.8729V20.3238ZM26.386 23.1213V32.6901H21.8509V23.1213H20.2018C19.8347 23.1213 19.49 23.0245 19.1914 22.8547C19.1667 22.8407 19.1424 22.8262 19.1183 22.8111C18.5314 22.4445 18.1404 21.7889 18.1404 21.0411V2.31955C18.1404 1.1707 19.0633 0.23938 20.2018 0.23938H44.9386C46.0771 0.23938 47 1.17071 47 2.31955V21.0411C47 21.7889 46.609 22.4445 46.022 22.8111C45.7072 23.0078 45.336 23.1213 44.9386 23.1213H43.2895V32.6901H38.7544V23.1213H26.386ZM3.74997 16.5897C3.86912 16.7169 3.99352 16.8391 4.12281 16.9559C5.21691 17.944 6.66173 18.5449 8.24561 18.5449C9.8295 18.5449 11.2743 17.944 12.3684 16.9559C12.4977 16.8391 12.6221 16.7169 12.7413 16.5897C13.788 15.4718 14.4298 13.9637 14.4298 12.3044C14.4298 8.85784 11.6611 6.06386 8.24561 6.06386C4.83017 6.06386 2.0614 8.85784 2.0614 12.3044C2.0614 13.9637 2.7032 15.4718 3.74997 16.5897ZM13.5677 19.5557C13.1882 19.4395 12.7855 19.377 12.3684 19.377H4.12281C3.7057 19.377 3.30305 19.4395 2.92357 19.5557C1.23152 20.074 0 21.6605 0 23.5373V28.5297C0 30.8274 1.84584 32.6901 4.12281 32.6901H12.3684C14.6454 32.6901 16.4912 30.8274 16.4912 28.5297V23.5373C16.4912 22.6007 16.1845 21.7364 15.667 21.0411C15.5857 20.9319 15.4991 20.8268 15.4078 20.7263C14.9154 20.1845 14.2827 19.7747 13.5677 19.5557ZM13.7587 28.5297V23.5373C13.7587 22.8225 13.1735 22.1744 12.3684 22.1744H4.12281C3.31773 22.1744 2.73256 22.8225 2.73256 23.5373V28.5297C2.73256 29.2445 3.31773 29.8926 4.12281 29.8926H12.3684C13.1735 29.8926 13.7587 29.2445 13.7587 28.5297ZM8.24561 15.7474C10.1892 15.7474 11.6973 14.168 11.6973 12.3044C11.6973 10.4407 10.1892 8.86134 8.24561 8.86134C6.30205 8.86134 4.79396 10.4407 4.79396 12.3044C4.79396 14.168 6.30205 15.7474 8.24561 15.7474Z" fill="white"/>
</svg>
