<svg width="28" height="28" viewBox="0 0 28 28" fill="none" xmlns="http://www.w3.org/2000/svg">
<path d="M13.828 0.338013C14.2809 0.338013 14.7152 0.517935 15.0355 0.838199C15.3558 1.15846 15.5357 1.59283 15.5357 2.04576V12.2922H25.7822C26.2351 12.2922 26.6694 12.4721 26.9897 12.7924C27.31 13.1127 27.4899 13.547 27.4899 14C27.4899 14.4529 27.31 14.8872 26.9897 15.2075C26.6694 15.5278 26.2351 15.7077 25.7822 15.7077H15.5357V25.9542C15.5357 26.4071 15.3558 26.8414 15.0355 27.1617C14.7152 27.482 14.2809 27.6619 13.828 27.6619C13.375 27.6619 12.9407 27.482 12.6204 27.1617C12.3001 26.8414 12.1202 26.4071 12.1202 25.9542V15.7077H1.87376C1.42084 15.7077 0.986466 15.5278 0.666202 15.2075C0.345938 14.8872 0.166016 14.4529 0.166016 14C0.166016 13.547 0.345938 13.1127 0.666202 12.7924C0.986466 12.4721 1.42084 12.2922 1.87376 12.2922H12.1202V2.04576C12.1202 1.59283 12.3001 1.15846 12.6204 0.838199C12.9407 0.517935 13.375 0.338013 13.828 0.338013V0.338013Z" fill="#000709"/>
</svg>
